<svg xmlns="http://www.w3.org/2000/svg" xmlns:xlink="http://www.w3.org/1999/xlink" width="500" height="500" viewBox="0 0 500 500">
  <defs>
    <style>
      .cls-1 {
        clip-path: url(#clip-Artboard_1);
      }

      .cls-2 {
        fill: #f5f5f5;
      }

      .cls-3 {
        fill: #e6e6e6;
      }

      .cls-4, .cls-6 {
        fill: #e0e0e0;
      }

      .cls-5 {
        fill: #ebebeb;
      }

      .cls-21, .cls-6, .cls-9 {
        opacity: 0.8;
      }

      .cls-10, .cls-13, .cls-20, .cls-21, .cls-25, .cls-26, .cls-7 {
        fill: #fff;
      }

      .cls-8 {
        fill: #f0f0f0;
      }

      .cls-10, .cls-25, .cls-27 {
        opacity: 0.1;
      }

      .cls-10 {
        isolation: isolate;
      }

      .cls-11 {
        fill: #263238;
      }

      .cls-12 {
        fill: #407bff;
      }

      .cls-13, .cls-17 {
        opacity: 0.6;
      }

      .cls-14, .cls-15, .cls-18, .cls-19 {
        fill: none;
      }

      .cls-14, .cls-19 {
        stroke: #407bff;
      }

      .cls-14, .cls-15, .cls-18 {
        stroke-linecap: round;
        stroke-linejoin: round;
      }

      .cls-15 {
        stroke: #263238;
      }

      .cls-16 {
        opacity: 0.3;
      }

      .cls-18 {
        stroke: #fff;
      }

      .cls-19 {
        stroke-miterlimit: 10;
      }

      .cls-20 {
        opacity: 0.5;
      }

      .cls-22 {
        fill: #ffb573;
      }

      .cls-23 {
        fill: #ed893e;
      }

      .cls-24 {
        opacity: 0.2;
      }

      .cls-26 {
        opacity: 0.4;
      }
    </style>
    <clipPath id="clip-Artboard_1">
      <rect width="500" height="500"/>
    </clipPath>
  </defs>
  <g id="Artboard_1" data-name="Artboard 1" class="cls-1">
    <rect class="cls-7" width="500" height="500"/>
    <g id="Background_Complete" data-name="Background Complete">
      <g id="Groupe_3" data-name="Groupe 3">
        <g id="Shadow--inject-214">
          <ellipse id="path--inject-214" class="cls-2" cx="193.89" cy="11.32" rx="193.89" ry="11.32" transform="translate(56.11 419.947)"/>
        </g>
        <g id="Groupe_1" data-name="Groupe 1">
          <path id="Tracé_1" data-name="Tracé 1" class="cls-3" d="M238.4,341.53H45.305a5.709,5.709,0,0,1-5.7-5.71V64.39a5.71,5.71,0,0,1,5.7-5.66H238.4a5.711,5.711,0,0,1,5.71,5.71h0V335.82A5.71,5.71,0,0,1,238.4,341.53ZM45.305,58.93a5.46,5.46,0,0,0-5.45,5.46V335.82a5.459,5.459,0,0,0,5.45,5.46H238.4a5.47,5.47,0,0,0,5.46-5.46V64.39a5.471,5.471,0,0,0-5.46-5.46Z"/>
          <path id="Tracé_2" data-name="Tracé 2" class="cls-3" d="M454.7,341.53h-193.1a5.719,5.719,0,0,1-5.71-5.71V64.39a5.721,5.721,0,0,1,5.71-5.66H454.7a5.71,5.71,0,0,1,5.69,5.66V335.82A5.71,5.71,0,0,1,454.7,341.53Zm-193.1-282.6a5.47,5.47,0,0,0-5.46,5.46V335.82a5.469,5.469,0,0,0,5.46,5.46H454.7a5.47,5.47,0,0,0,5.46-5.46V64.39a5.471,5.471,0,0,0-5.46-5.46Z"/>
        </g>
        <g id="Groupe_2" data-name="Groupe 2">
          <rect id="Rectangle_1" data-name="Rectangle 1" class="cls-4" width="41.21" height="0.25" transform="translate(44.73 392.21)"/>
          <rect id="Rectangle_2" data-name="Rectangle 2" class="cls-4" width="41.33" height="0.25" transform="translate(128.61 390.21)"/>
          <rect id="Rectangle_3" data-name="Rectangle 3" class="cls-4" width="10" height="0.25" transform="translate(213.72 390.21)"/>
          <rect id="Rectangle_4" data-name="Rectangle 4" class="cls-4" width="46.25" height="0.25" transform="translate(77.52 398.75)"/>
          <rect id="Rectangle_5" data-name="Rectangle 5" class="cls-4" width="21.6" height="0.25" transform="translate(262.14 392.08)"/>
          <rect id="Rectangle_6" data-name="Rectangle 6" class="cls-4" width="27.93" height="0.25" transform="translate(292.64 392.08)"/>
          <rect id="Rectangle_7" data-name="Rectangle 7" class="cls-4" width="62.44" height="0.25" transform="translate(392.83 396.31)"/>
        </g>
        <rect id="Rectangle_8" data-name="Rectangle 8" class="cls-5" width="500" height="0.25" transform="translate(0 382.398)"/>
      </g>
      <g id="Groupe_25" data-name="Groupe 25">
        <g id="Groupe_23" data-name="Groupe 23">
          <g id="Groupe_6" data-name="Groupe 6">
            <g id="Groupe_4" data-name="Groupe 4">
              <path id="Tracé_3" data-name="Tracé 3" class="cls-6" d="M334.835,79.48l-2.493,34.275a4.906,4.906,0,0,1-1.393,3.09,4.968,4.968,0,0,1-3.607,1.584H299.85a4.319,4.319,0,0,1-4.346-4.674L298,79.48a5.089,5.089,0,0,1,5-4.673h27.492A4.3,4.3,0,0,1,334.835,79.48Z"/>
            </g>
            <g id="Groupe_5" data-name="Groupe 5">
              <ellipse id="Ellipse_1" data-name="Ellipse 1" class="cls-7" cx="9.221" cy="7.47" rx="9.221" ry="7.47" transform="translate(306.187 102.493) rotate(-78.181)"/>
              <path id="Tracé_4" data-name="Tracé 4" class="cls-7" d="M326.377,116.066H301.218c-1.6,0-2.7-.765-2.74-1.839-.058-1.555,8.1-8.3,15.841-7.719.028,0,.056,0,.085,0h.092a21.284,21.284,0,0,1,12.959,4.991C331.188,114.45,327.655,116.066,326.377,116.066Z"/>
            </g>
          </g>
          <g id="Groupe_14" data-name="Groupe 14">
            <g id="Groupe_7" data-name="Groupe 7">
              <path id="Tracé_5" data-name="Tracé 5" class="cls-4" d="M193.021,117.18a10.594,10.594,0,0,1-10.506-9.593,8.952,8.952,0,0,1,8.9-9.837,10.6,10.6,0,0,1,10.508,9.594A8.952,8.952,0,0,1,193.021,117.18Zm-1.175-14.267a4.194,4.194,0,0,0-4.173,4.609,4.963,4.963,0,0,0,4.923,4.495,4.194,4.194,0,0,0,4.174-4.608A4.966,4.966,0,0,0,191.846,102.913Z"/>
            </g>
            <g id="Groupe_13" data-name="Groupe 13">
              <g id="Groupe_8" data-name="Groupe 8">
                <path id="Tracé_6" data-name="Tracé 6" class="cls-4" d="M193.5,102.164l-3.684.046-1.954-23.717,3.684-.046Z"/>
              </g>
              <g id="Groupe_12" data-name="Groupe 12">
                <g id="Groupe_9" data-name="Groupe 9">
                  <path id="Tracé_7" data-name="Tracé 7" class="cls-4" d="M195.039,79.511l-6.917.086-.3-3.688,6.917-.086Z"/>
                </g>
                <g id="Groupe_10" data-name="Groupe 10">
                  <path id="Tracé_8" data-name="Tracé 8" class="cls-4" d="M195.435,84.25l-6.5.081-.3-3.688,6.5-.081Z"/>
                </g>
                <g id="Groupe_11" data-name="Groupe 11">
                  <path id="Tracé_9" data-name="Tracé 9" class="cls-4" d="M196,90.934,190.319,91l-.3-3.688,5.677-.071Z"/>
                </g>
              </g>
            </g>
          </g>
          <g id="Groupe_22" data-name="Groupe 22">
            <g id="Groupe_15" data-name="Groupe 15">
              <path id="Tracé_10" data-name="Tracé 10" class="cls-8" d="M79.309,318.769a9.036,9.036,0,0,0,8.869,8.289h84.49a7.6,7.6,0,0,0,7.723-7.4,8.545,8.545,0,0,0-.012-.889,9.038,9.038,0,0,0-8.869-8.281H87.02A7.626,7.626,0,0,0,79.309,318.769Z"/>
            </g>
            <g id="Groupe_16" data-name="Groupe 16">
              <path id="Tracé_11" data-name="Tracé 11" class="cls-4" d="M180.388,319.657a5.419,5.419,0,0,1-.074.8,9.049,9.049,0,0,0-8.84-7.97l-89.853.14a7.7,7.7,0,0,1,5.4-2.14h84.49a8.775,8.775,0,0,1,8.879,9.17Z"/>
            </g>
            <g id="Groupe_18" data-name="Groupe 18">
              <g id="Groupe_17" data-name="Groupe 17">
                <path id="Tracé_12" data-name="Tracé 12" class="cls-7" d="M165.93,314.484l.283,4.042,3.787-1.4.86,2-3.869,1.276,2.7,3.391-1.746,1.277-2.63-3.525-2.1,3.525-1.87-1.277,2.191-3.391-4.011-1.276.578-1.983,4.019,1.352-.28-4Z"/>
                <path id="Tracé_13" data-name="Tracé 13" class="cls-7" d="M142.823,314.484l.283,4.042,3.787-1.4.859,2-3.868,1.276,2.7,3.391-1.746,1.277-2.63-3.525-2.1,3.525-1.871-1.277,2.192-3.391-4.011-1.276.578-1.983,4.019,1.352-.28-4Z"/>
                <path id="Tracé_14" data-name="Tracé 14" class="cls-7" d="M119.716,314.484l.283,4.042,3.787-1.4.859,2-3.868,1.276,2.7,3.391-1.745,1.277-2.63-3.525-2.1,3.525-1.871-1.277,2.192-3.391-4.011-1.276.578-1.983,4.019,1.352-.28-4Z"/>
                <path id="Tracé_15" data-name="Tracé 15" class="cls-7" d="M96.609,314.484l.282,4.042,3.788-1.4.859,2-3.868,1.276,2.7,3.391-1.745,1.277L96,321.537l-2.1,3.525-1.871-1.277,2.192-3.391-4.011-1.276.578-1.983,4.019,1.352-.28-4Z"/>
              </g>
            </g>
            <g id="Groupe_21" data-name="Groupe 21">
              <g id="Groupe_19" data-name="Groupe 19">
                <path id="Tracé_16" data-name="Tracé 16" class="cls-4" d="M152.735,307.569H148.8l.018-1h3.938Z"/>
              </g>
              <g id="Groupe_20" data-name="Groupe 20">
                <path id="Tracé_17" data-name="Tracé 17" class="cls-4" d="M169.673,307.569H156.82l.018-1h12.854Z"/>
              </g>
            </g>
          </g>
        </g>
        <g id="Groupe_24" data-name="Groupe 24" class="cls-9">
          <path id="Tracé_18" data-name="Tracé 18" class="cls-4" d="M269.385,302.527l15.933,24.531L337.877,274.5a.521.521,0,0,0-.69-.778L287.1,312.982l-9.458-15.251Z"/>
        </g>
      </g>
    </g>
    <g id="Device_2" data-name="Device 2">
      <g id="Groupe_29" data-name="Groupe 29">
        <path id="Tracé_21" data-name="Tracé 21" class="cls-10" d="M259.856,127.955l-37.739,141.15h12.7l37.323-141.15Z"/>
        <path id="Tracé_22" data-name="Tracé 22" class="cls-10" d="M279.449,127.955l-37.74,141.15h25.182l37.323-141.15Z"/>
      </g>
      <g id="Groupe_46" data-name="Groupe 46">
        <g id="Groupe_43" data-name="Groupe 43">
          <g id="Groupe_33" data-name="Groupe 33">
            <g id="Groupe_32" data-name="Groupe 32">
              <g id="Groupe_31" data-name="Groupe 31">
                <g id="Groupe_30" data-name="Groupe 30">
                  <path id="Tracé_23" data-name="Tracé 23" class="cls-11" d="M415.31,255.315l7.962-113.3a6.243,6.243,0,0,0-6.335-6.772L219.2,135.41a7.413,7.413,0,0,0-7.288,6.784l-7.961,113.3a6.243,6.243,0,0,0,6.335,6.772l197.735-.171A7.413,7.413,0,0,0,415.31,255.315Z"/>
                </g>
              </g>
            </g>
          </g>
          <g id="Groupe_42" data-name="Groupe 42">
            <g id="Groupe_41" data-name="Groupe 41">
              <path id="Tracé_24" data-name="Tracé 24" class="cls-12" d="M412.773,252.844l7.961-113.3a6.244,6.244,0,0,0-6.335-6.772l-197.734.172a7.412,7.412,0,0,0-7.288,6.784l-7.962,113.3a6.245,6.245,0,0,0,6.336,6.773l197.734-.172A7.413,7.413,0,0,0,412.773,252.844Z"/>
              <path id="Tracé_25" data-name="Tracé 25" class="cls-13" d="M407.531,254.516a2.154,2.154,0,0,1-1.493.579l-197.735.172a2.343,2.343,0,0,1-2.322-2.477l7.961-113.3a2.134,2.134,0,0,1,.677-1.435,2.158,2.158,0,0,1,1.493-.579l197.734-.171a2.342,2.342,0,0,1,2.322,2.477l-7.961,113.3A2.127,2.127,0,0,1,407.531,254.516Z"/>
              <g id="Groupe_35" data-name="Groupe 35">
                <path id="Tracé_26" data-name="Tracé 26" class="cls-7" d="M341.759,192.229H272.353a2.546,2.546,0,0,0-2.477,2.233l-1.063,10.15a1.979,1.979,0,0,0,2.011,2.233h69.4a2.546,2.546,0,0,0,2.478-2.233l1.062-10.15A1.979,1.979,0,0,0,341.759,192.229Z"/>
                <g id="Groupe_34" data-name="Groupe 34">
                  <path id="Tracé_27" data-name="Tracé 27" class="cls-7" d="M280.608,233.685H269.777a2.546,2.546,0,0,0-2.477,2.233l-1.062,10.15a1.979,1.979,0,0,0,2.01,2.233h10.831a2.547,2.547,0,0,0,2.478-2.233l1.062-10.15A1.979,1.979,0,0,0,280.608,233.685Z"/>
                  <path id="Tracé_28" data-name="Tracé 28" class="cls-7" d="M299.309,233.685H288.478A2.546,2.546,0,0,0,286,235.918l-1.062,10.15a1.979,1.979,0,0,0,2.01,2.233H297.78a2.547,2.547,0,0,0,2.478-2.233l1.062-10.15A1.979,1.979,0,0,0,299.309,233.685Z"/>
                  <path id="Tracé_29" data-name="Tracé 29" class="cls-7" d="M318.01,233.685H307.179a2.546,2.546,0,0,0-2.477,2.233l-1.063,10.15a1.979,1.979,0,0,0,2.011,2.233h10.831a2.547,2.547,0,0,0,2.478-2.233l1.062-10.15A1.979,1.979,0,0,0,318.01,233.685Z"/>
                  <path id="Tracé_30" data-name="Tracé 30" class="cls-7" d="M336.711,233.685H325.88a2.546,2.546,0,0,0-2.477,2.233l-1.063,10.15a1.979,1.979,0,0,0,2.011,2.233h10.831a2.547,2.547,0,0,0,2.478-2.233l1.062-10.15A1.979,1.979,0,0,0,336.711,233.685Z"/>
                </g>
                <path id="Tracé_31" data-name="Tracé 31" class="cls-14" d="M281.059,226.771h43.416a4.335,4.335,0,0,0,4.219-3.8l.522-4.983a3.371,3.371,0,0,0-3.424-3.8H282.376a4.336,4.336,0,0,0-4.22,3.8l-.521,4.983A3.37,3.37,0,0,0,281.059,226.771Z"/>
                <path id="Tracé_32" data-name="Tracé 32" class="cls-7" d="M344.26,171.1H274.854a2.545,2.545,0,0,0-2.477,2.233l-1.062,10.149a1.979,1.979,0,0,0,2.01,2.233h69.406a2.545,2.545,0,0,0,2.477-2.233l1.063-10.149A1.98,1.98,0,0,0,344.26,171.1Z"/>
                <path id="Tracé_33" data-name="Tracé 33" class="cls-11" d="M280.793,199.537a2.191,2.191,0,0,0-2.226-2.472,2.819,2.819,0,0,0-2.743,2.472,2.191,2.191,0,0,0,2.226,2.472A2.818,2.818,0,0,0,280.793,199.537Z"/>
                <path id="Tracé_34" data-name="Tracé 34" class="cls-11" d="M288.427,199.537a2.192,2.192,0,0,0-2.226-2.472,2.819,2.819,0,0,0-2.743,2.472,2.191,2.191,0,0,0,2.226,2.472A2.818,2.818,0,0,0,288.427,199.537Z"/>
                <path id="Tracé_35" data-name="Tracé 35" class="cls-11" d="M296.06,199.537a2.19,2.19,0,0,0-2.225-2.472,2.817,2.817,0,0,0-2.743,2.472,2.19,2.19,0,0,0,2.225,2.472A2.818,2.818,0,0,0,296.06,199.537Z"/>
                <path id="Tracé_36" data-name="Tracé 36" class="cls-11" d="M303.694,199.537a2.192,2.192,0,0,0-2.226-2.472,2.819,2.819,0,0,0-2.743,2.472,2.191,2.191,0,0,0,2.226,2.472A2.818,2.818,0,0,0,303.694,199.537Z"/>
                <path id="Tracé_37" data-name="Tracé 37" class="cls-11" d="M311.477,199.537a2.191,2.191,0,0,0-2.226-2.472,2.819,2.819,0,0,0-2.743,2.472,2.191,2.191,0,0,0,2.226,2.472A2.818,2.818,0,0,0,311.477,199.537Z"/>
                <path id="Tracé_38" data-name="Tracé 38" class="cls-11" d="M283.294,178.4a2.19,2.19,0,0,0-2.225-2.472,2.819,2.819,0,0,0-2.743,2.472,2.191,2.191,0,0,0,2.225,2.473A2.819,2.819,0,0,0,283.294,178.4Z"/>
                <path id="Tracé_39" data-name="Tracé 39" class="cls-11" d="M290.928,178.4a2.191,2.191,0,0,0-2.226-2.472,2.819,2.819,0,0,0-2.743,2.472,2.192,2.192,0,0,0,2.226,2.473A2.819,2.819,0,0,0,290.928,178.4Z"/>
                <path id="Tracé_40" data-name="Tracé 40" class="cls-11" d="M298.561,178.4a2.19,2.19,0,0,0-2.225-2.472,2.819,2.819,0,0,0-2.743,2.472,2.191,2.191,0,0,0,2.225,2.473A2.819,2.819,0,0,0,298.561,178.4Z"/>
                <path id="Tracé_41" data-name="Tracé 41" class="cls-11" d="M306.2,178.4a2.191,2.191,0,0,0-2.226-2.472,2.819,2.819,0,0,0-2.743,2.472,2.192,2.192,0,0,0,2.226,2.473A2.819,2.819,0,0,0,306.2,178.4Z"/>
                <path id="Tracé_42" data-name="Tracé 42" class="cls-11" d="M313.828,178.4a2.19,2.19,0,0,0-2.225-2.472,2.819,2.819,0,0,0-2.743,2.472,2.191,2.191,0,0,0,2.225,2.473A2.819,2.819,0,0,0,313.828,178.4Z"/>
                <path id="Tracé_43" data-name="Tracé 43" class="cls-11" d="M321.462,178.4a2.191,2.191,0,0,0-2.226-2.472,2.819,2.819,0,0,0-2.743,2.472,2.192,2.192,0,0,0,2.226,2.473A2.819,2.819,0,0,0,321.462,178.4Z"/>
              </g>
              <g id="Groupe_40" data-name="Groupe 40">
                <g id="Groupe_39" data-name="Groupe 39">
                  <g id="Groupe_36" data-name="Groupe 36">
                    <path id="Tracé_44" data-name="Tracé 44" class="cls-12" d="M314.978,148.712l-.541,5.125a.956.956,0,0,1-.929.837.741.741,0,0,1-.752-.837l.541-5.125a2.662,2.662,0,0,0-2.7-3h-1.843a3.43,3.43,0,0,0-3.333,3l-.469,4.761h-1.681l.469-4.761a5.342,5.342,0,0,1,5.191-4.676h1.842A4.144,4.144,0,0,1,314.978,148.712Z"/>
                  </g>
                  <g id="Groupe_38" data-name="Groupe 38">
                    <g id="Groupe_37" data-name="Groupe 37">
                      <path id="Tracé_45" data-name="Tracé 45" class="cls-12" d="M315.012,153.65l-1.054,9.986a1.3,1.3,0,0,1-1.269,1.144H302.654a1.012,1.012,0,0,1-1.028-1.144l1.054-9.986a1.3,1.3,0,0,1,.641-.969,1.246,1.246,0,0,1,.628-.174h10.035a1.065,1.065,0,0,1,.576.163A1.016,1.016,0,0,1,315.012,153.65Z"/>
                    </g>
                  </g>
                </g>
              </g>
            </g>
          </g>
        </g>
        <g id="Groupe_44" data-name="Groupe 44">
          <line id="Ligne_1" data-name="Ligne 1" class="cls-15" x1="24.436" y2="0.146" transform="translate(368.872 132.108)"/>
          <line id="Ligne_2" data-name="Ligne 2" class="cls-15" x1="8.637" y2="0.038" transform="translate(397.992 132.042)"/>
        </g>
        <g id="Groupe_45" data-name="Groupe 45" class="cls-16">
          <path id="Tracé_46" data-name="Tracé 46" class="cls-7" d="M235.1,137.442h27.976l-28.44,117.825H212.058a4.317,4.317,0,0,1-4.1-5.387Z"/>
          <path id="Tracé_47" data-name="Tracé 47" class="cls-7" d="M275.5,137.442h11.877L258.932,255.267H247.055Z"/>
        </g>
      </g>
    </g>
    <g id="Device_1" data-name="Device 1">
      <g id="Groupe_59" data-name="Groupe 59">
        <g id="Groupe_57" data-name="Groupe 57">
          <g id="Groupe_55" data-name="Groupe 55">
            <g id="Groupe_54" data-name="Groupe 54">
              <g id="Groupe_47" data-name="Groupe 47">
                <path id="Tracé_48" data-name="Tracé 48" class="cls-12" d="M86.654,100.663H92.33a9.519,9.519,0,0,0-9.621,10.344L94.757,283.3a11.267,11.267,0,0,0,11.068,10.344h-5.676A11.267,11.267,0,0,1,89.081,283.3l-12.049-172.3A9.52,9.52,0,0,1,86.654,100.663Z"/>
                <path id="Tracé_49" data-name="Tracé 49" class="cls-11" d="M86.654,100.663H92.33a9.519,9.519,0,0,0-9.621,10.344L94.757,283.3a11.267,11.267,0,0,0,11.068,10.344h-5.676c-5.714,0-11.469-4.631-11.868-10.344l-12.049-172.3C75.833,105.294,80.94,100.663,86.654,100.663Z"/>
              </g>
              <path id="Tracé_50" data-name="Tracé 50" class="cls-12" d="M101.841,293.649h69.5A9.519,9.519,0,0,0,180.96,283.3l-12.048-172.3a11.268,11.268,0,0,0-11.068-10.344h-69.5a9.52,9.52,0,0,0-9.621,10.344L90.773,283.3A11.268,11.268,0,0,0,101.841,293.649Z"/>
              <g id="Groupe_48" data-name="Groupe 48" class="cls-17">
                <path id="Tracé_51" data-name="Tracé 51" class="cls-7" d="M157.656,103.982a7.85,7.85,0,0,1,7.7,7.2l12.048,172.3a6.269,6.269,0,0,1-6.367,6.852h-69.5a7.849,7.849,0,0,1-7.7-7.2l-12.048-172.3a6.269,6.269,0,0,1,6.367-6.852Z"/>
              </g>
              <g id="Groupe_49" data-name="Groupe 49" class="cls-16">
                <path id="Tracé_52" data-name="Tracé 52" class="cls-7" d="M138.033,290.33H110.315l22.858-186.348h22.308a7.04,7.04,0,0,1,5.139,2.213Z"/>
                <path id="Tracé_53" data-name="Tracé 53" class="cls-7" d="M105.34,290.33H99.1l22.858-186.348H128.2Z"/>
              </g>
              <g id="Groupe_50" data-name="Groupe 50">
                <line id="Ligne_3" data-name="Ligne 3" class="cls-18" x2="50.341" transform="translate(103.176 185.404)"/>
                <line id="Ligne_4" data-name="Ligne 4" class="cls-18" x2="39.431" transform="translate(109.67 192.848)"/>
              </g>
              <g id="Groupe_53" data-name="Groupe 53">
                <g id="Groupe_51" data-name="Groupe 51">
                  <path id="Tracé_54" data-name="Tracé 54" class="cls-12" d="M104.678,151.078l.069,1.978h-1.29l-.069-1.994-2.285-3.589h1.371l1.576,2.481,1.4-2.481h1.267Z"/>
                  <path id="Tracé_55" data-name="Tracé 55" class="cls-12" d="M106.772,150.265a2.771,2.771,0,0,1,2.95-2.888,3.011,3.011,0,0,1,3.152,2.888,2.77,2.77,0,0,1-2.949,2.887A3.012,3.012,0,0,1,106.772,150.265Zm4.795,0a1.773,1.773,0,0,0-1.806-1.786,1.633,1.633,0,0,0-1.682,1.786,1.774,1.774,0,0,0,1.807,1.786A1.633,1.633,0,0,0,111.567,150.265Z"/>
                  <path id="Tracé_56" data-name="Tracé 56" class="cls-12" d="M113.814,150.6l-.109-3.127H115l.107,3.079c.038,1.061.515,1.5,1.3,1.5s1.227-.438,1.19-1.5l-.108-3.079h1.275l.109,3.127a2.22,2.22,0,0,1-2.434,2.552A2.4,2.4,0,0,1,113.814,150.6Z"/>
                  <path id="Tracé_57" data-name="Tracé 57" class="cls-12" d="M123.782,153.056l-1.13-1.555h-1.187l.054,1.555h-1.29l-.195-5.583h2.413c1.49,0,2.448.774,2.492,2.026a1.738,1.738,0,0,1-1.085,1.763l1.314,1.794Zm-1.369-4.53H121.36l.069,1.946h1.051c.789,0,1.174-.367,1.153-.973S123.2,148.526,122.413,148.526Z"/>
                  <path id="Tracé_58" data-name="Tracé 58" class="cls-12" d="M127.895,150.265a2.752,2.752,0,0,1,2.925-2.888,2.982,2.982,0,0,1,2.329.99l-.8.765a1.858,1.858,0,0,0-1.424-.653,1.643,1.643,0,0,0-1.722,1.786,1.784,1.784,0,0,0,1.847,1.786,1.708,1.708,0,0,0,1.378-.662l.855.766a2.76,2.76,0,0,1-2.266,1A2.987,2.987,0,0,1,127.895,150.265Z"/>
                  <path id="Tracé_59" data-name="Tracé 59" class="cls-12" d="M133.619,150.265a2.77,2.77,0,0,1,2.949-2.888,3.012,3.012,0,0,1,3.153,2.888,2.771,2.771,0,0,1-2.95,2.887A3.012,3.012,0,0,1,133.619,150.265Zm4.795,0a1.774,1.774,0,0,0-1.807-1.786,1.632,1.632,0,0,0-1.681,1.786,1.773,1.773,0,0,0,1.806,1.786A1.634,1.634,0,0,0,138.414,150.265Z"/>
                  <path id="Tracé_60" data-name="Tracé 60" class="cls-12" d="M140.6,147.473h2.533a2.9,2.9,0,0,1,3.172,2.792,2.672,2.672,0,0,1-2.977,2.791h-2.533Zm2.627,4.522a1.6,1.6,0,0,0,1.771-1.73,1.734,1.734,0,0,0-1.893-1.731h-1.178l.121,3.461Z"/>
                  <path id="Tracé_61" data-name="Tracé 61" class="cls-12" d="M151.66,152.019l.036,1.037h-4.317l-.195-5.583H151.4l.037,1.037H148.5l.042,1.212h2.589l.036,1.005H148.58l.045,1.292Z"/>
                </g>
                <g id="Groupe_52" data-name="Groupe 52">
                  <path id="Tracé_62" data-name="Tracé 62" class="cls-11" d="M114.378,173.806l.04,2.244H103.891l-.032-1.775,5.577-5.384c1.365-1.326,1.6-2.163,1.581-2.958-.023-1.306-.934-2.06-2.689-2.06a3.957,3.957,0,0,0-3.319,1.489l-1.882-1.428a6.479,6.479,0,0,1,5.386-2.367c3.1,0,5.128,1.571,5.172,4.1.024,1.387-.341,2.652-2.289,4.508l-3.751,3.631Z"/>
                  <path id="Tracé_63" data-name="Tracé 63" class="cls-11" d="M126.012,171.767c.042,2.406-1.738,4.487-5.574,4.487a9.1,9.1,0,0,1-5.393-1.652l1.106-2.06a6.764,6.764,0,0,0,4.206,1.407c1.9,0,3-.837,2.982-2.162-.023-1.285-.976-2.122-3.138-2.122h-1.306l-.031-1.815,3.175-3.855h-6.487l-.038-2.224h9.731l.03,1.775-3.4,4.121C124.579,168.013,125.974,169.624,126.012,171.767Z"/>
                  <path id="Tracé_64" data-name="Tracé 64" class="cls-11" d="M139.336,171.95c.047,2.652-2.231,4.3-5.78,4.3s-5.842-1.652-5.889-4.3a3.507,3.507,0,0,1,2.225-3.406,3.328,3.328,0,0,1-1.828-3c-.043-2.448,2.073-3.978,5.235-3.978,3.182,0,5.372,1.53,5.415,3.978a3.2,3.2,0,0,1-1.763,3A3.668,3.668,0,0,1,139.336,171.95Zm-2.674-.081c-.025-1.408-1.264-2.286-3.223-2.286s-3.127.878-3.1,2.286c.025,1.447,1.223,2.3,3.181,2.3S136.687,173.316,136.662,171.869Zm-5.984-6.2c.021,1.224,1.054,2,2.727,2,1.694,0,2.721-.776,2.7-2-.022-1.285-1.136-2.019-2.769-2.019S130.655,164.382,130.678,165.667Z"/>
                  <path id="Tracé_65" data-name="Tracé 65" class="cls-11" d="M152.637,171.95c.047,2.652-2.231,4.3-5.781,4.3s-5.841-1.652-5.888-4.3a3.505,3.505,0,0,1,2.224-3.406,3.329,3.329,0,0,1-1.827-3c-.043-2.448,2.072-3.978,5.235-3.978,3.182,0,5.372,1.53,5.415,3.978a3.2,3.2,0,0,1-1.763,3A3.669,3.669,0,0,1,152.637,171.95Zm-2.674-.081c-.026-1.408-1.264-2.286-3.223-2.286s-3.127.878-3.1,2.286c.025,1.447,1.223,2.3,3.181,2.3S149.988,173.316,149.963,171.869Zm-5.985-6.2c.022,1.224,1.055,2,2.728,2,1.693,0,2.721-.776,2.7-2-.022-1.285-1.136-2.019-2.769-2.019S143.956,164.382,143.978,165.667Z"/>
                </g>
              </g>
            </g>
          </g>
          <g id="Groupe_56" data-name="Groupe 56">
            <line id="Ligne_5" data-name="Ligne 5" class="cls-14" x2="1.773" y2="24.171" transform="translate(76.719 125.636)"/>
            <line id="Ligne_6" data-name="Ligne 6" class="cls-14" x2="0.468" y2="6.378" transform="translate(75.911 114.625)"/>
          </g>
        </g>
        <g id="Groupe_58" data-name="Groupe 58">
          <line id="Ligne_7" data-name="Ligne 7" class="cls-14" y1="14.716" transform="translate(123.37 75.877)"/>
          <line id="Ligne_8" data-name="Ligne 8" class="cls-14" x1="7.355" y1="12.736" transform="translate(104.366 80.97)"/>
          <line id="Ligne_9" data-name="Ligne 9" class="cls-14" x1="7.355" y2="12.742" transform="translate(135.019 80.97)"/>
        </g>
      </g>
    </g>
    <g id="Plant">
      <g id="Groupe_64" data-name="Groupe 64">
        <g id="Groupe_63" data-name="Groupe 63">
          <path id="Tracé_66" data-name="Tracé 66" class="cls-19" d="M313.892,351.759a213.1,213.1,0,0,0-6.068,62.09"/>
          <g id="Groupe_61" data-name="Groupe 61">
            <g id="Groupe_60" data-name="Groupe 60">
              <path id="Tracé_67" data-name="Tracé 67" class="cls-12" d="M309.221,350.9c.045,1.868,1.719,8.469,3.586,8.424s3.22-6.72,3.175-8.587a3.381,3.381,0,1,0-6.761.163Z"/>
              <path id="Tracé_68" data-name="Tracé 68" class="cls-12" d="M316.494,371.888c-.045-1.867-1.719-8.468-3.586-8.423s-3.221,6.719-3.176,8.587a3.382,3.382,0,0,0,6.762-.164Z"/>
              <path id="Tracé_69" data-name="Tracé 69" class="cls-12" d="M302.362,365.029c1.867-.045,8.468-1.719,8.423-3.587s-6.719-3.22-8.587-3.175a3.382,3.382,0,0,0,.164,6.762Z"/>
              <path id="Tracé_70" data-name="Tracé 70" class="cls-12" d="M323.352,357.756c-1.867.045-8.468,1.719-8.423,3.586s6.72,3.221,8.587,3.176a3.382,3.382,0,1,0-.164-6.762Z"/>
              <path id="Tracé_71" data-name="Tracé 71" class="cls-12" d="M302.864,356.543c1.353,1.288,7.2,4.772,8.492,3.42s-2.474-7.029-3.826-8.317a3.382,3.382,0,0,0-4.666,4.9Z"/>
              <path id="Tracé_72" data-name="Tracé 72" class="cls-12" d="M322.85,366.242c-1.352-1.288-7.2-4.772-8.492-3.419s2.474,7.028,3.826,8.316a3.382,3.382,0,0,0,4.666-4.9Z"/>
              <path id="Tracé_73" data-name="Tracé 73" class="cls-12" d="M308.008,371.385c1.288-1.352,4.772-7.2,3.419-8.491s-7.028,2.473-8.316,3.826a3.382,3.382,0,1,0,4.9,4.665Z"/>
              <path id="Tracé_74" data-name="Tracé 74" class="cls-12" d="M317.707,351.4c-1.288,1.352-4.772,7.2-3.42,8.492s7.029-2.474,8.317-3.826a3.382,3.382,0,1,0-4.9-4.666Z"/>
              <path id="Tracé_75" data-name="Tracé 75" class="cls-7" d="M308.854,361.489a4,4,0,1,0,3.906-4.1A4,4,0,0,0,308.854,361.489Z"/>
            </g>
          </g>
          <path id="Tracé_76" data-name="Tracé 76" class="cls-12" d="M308.28,391.254s.691-10.213,6.3-11.828,7.663-3.8,7.663-3.8S321.671,391.451,308.28,391.254Z"/>
          <path id="Tracé_77" data-name="Tracé 77" class="cls-20" d="M308.28,391.254s.691-10.213,6.3-11.828,7.663-3.8,7.663-3.8S321.671,391.451,308.28,391.254Z"/>
          <path id="Tracé_78" data-name="Tracé 78" class="cls-12" d="M307.539,399.072s-.69-10.213-6.3-11.828-7.664-3.8-7.664-3.8S294.148,399.269,307.539,399.072Z"/>
          <path id="Tracé_79" data-name="Tracé 79" class="cls-20" d="M307.539,399.072s-.69-10.213-6.3-11.828-7.664-3.8-7.664-3.8S294.148,399.269,307.539,399.072Z"/>
          <g id="Groupe_62" data-name="Groupe 62">
            <path id="Tracé_80" data-name="Tracé 80" class="cls-12" d="M328.7,420.342c0,7.97-9.49,14.42-21.19,14.42s-21.19-6.45-21.19-14.42c0-4.03,2.43-7.68,6.36-10.29a24.1,24.1,0,0,1,8.12-3.38h13.42a24.165,24.165,0,0,1,8.31,3.51C326.349,412.792,328.7,416.372,328.7,420.342Z"/>
            <path id="Tracé_81" data-name="Tracé 81" class="cls-21" d="M314.219,406.672a24.165,24.165,0,0,1,8.31,3.51c3.82,2.61,6.17,6.19,6.17,10.16,0,7.97-9.49,14.42-21.19,14.42s-21.19-6.45-21.19-14.42c0-4.03,2.43-7.68,6.36-10.29a24.1,24.1,0,0,1,8.12-3.38Z"/>
            <path id="Tracé_82" data-name="Tracé 82" class="cls-19" d="M307.57,407.97V415.1"/>
          </g>
          <path id="Tracé_83" data-name="Tracé 83" class="cls-12" d="M323.462,406.45l-1.125,3.5-.018.035h-29.63l-.062-.186-1.07-3.354Z"/>
        </g>
        <path id="Tracé_84" data-name="Tracé 84" class="cls-11" d="M326.2,423.238a22.878,22.878,0,0,1-8.139,7c-5.09,2.7-26.5,3.4-28.944-8.751-.034-.169-.091-.333-.122-.5a4.976,4.976,0,0,1,5.46-5.683,24.647,24.647,0,0,0,6.07-.34A57.032,57.032,0,0,1,323.57,416.2,4.606,4.606,0,0,1,326.2,423.238Z"/>
      </g>
    </g>
    <g id="Character">
      <g id="Groupe_83" data-name="Groupe 83">
        <g id="Groupe_81" data-name="Groupe 81">
          <g id="Groupe_65" data-name="Groupe 65">
            <path id="Tracé_85" data-name="Tracé 85" class="cls-12" d="M172.51,419.2a1.174,1.174,0,0,0,.74-.88.69.69,0,0,0-.161-.688c-.77-.805-3.9-.234-4.253-.166a.208.208,0,0,0-.164.158.2.2,0,0,0,.083.21,10.721,10.721,0,0,0,2.03,1.156A2.557,2.557,0,0,0,172.51,419.2Zm.276-1.286a.288.288,0,0,1,.06.3.773.773,0,0,1-.479.6c-.567.2-1.652-.179-2.953-1.031C170.671,417.59,172.381,417.485,172.786,417.913Z"/>
            <path id="Tracé_86" data-name="Tracé 86" class="cls-12" d="M168.9,417.87c.957-.119,3.158-1.249,3.352-2.227a.71.71,0,0,0-.428-.791,1.1,1.1,0,0,0-.922-.077c-1.207.414-2.181,2.715-2.222,2.813a.2.2,0,0,0,.028.2.211.211,0,0,0,.086.065A.223.223,0,0,0,168.9,417.87Zm2.72-2.661c.234.129.242.258.223.356-.118.6-1.584,1.52-2.611,1.816.365-.75,1.086-1.971,1.807-2.218a.684.684,0,0,1,.5.006A.808.808,0,0,1,171.623,415.209Z"/>
            <path id="Tracé_87" data-name="Tracé 87" class="cls-22" d="M159.409,413.84l8.141,3.29,7.1-18.81-8.141-3.29Z"/>
            <path id="Tracé_88" data-name="Tracé 88" class="cls-11" d="M168.582,416.464l-9.146-3.7a.7.7,0,0,0-.878.284l-4.014,6.7a1.382,1.382,0,0,0,.711,1.952c3.211,1.235,4.824,1.672,8.846,3.3,2.475,1,5.984,2.714,9.4,4.1,3.342,1.351,4.987-1.87,3.69-2.747-5.816-3.928-6.047-6.2-7.455-8.843A2.28,2.28,0,0,0,168.582,416.464Z"/>
            <path id="Tracé_89" data-name="Tracé 89" class="cls-12" d="M174.551,407.549l-14.139-5.715,1.295-5.182,15.171,5.55Z"/>
          </g>
          <g id="Groupe_74" data-name="Groupe 74">
            <path id="Tracé_90" data-name="Tracé 90" class="cls-22" d="M188.707,189.834c-2.868,8.3-11.361,27.863-17.9,19.716a18.821,18.821,0,0,1-2.858-4.76c-2.778-6.854-3.461-17.954-3.813-20.38L161.9,176.8a1.458,1.458,0,0,1-.06-.4l-.036-4.345c0-1.762,1.419-2.808,3.341-2.647,0,0,3.1-.363,3.1,1.489l.6,6.522h-.02c.312,2.274-.594,5.434-.061,7.518,1.993,7.83,4.749,8.181,6.48,16.263,2.406-5.827,6.723-15.922,6.723-15.922C184.883,185.638,189.653,187.1,188.707,189.834Z"/>
            <path id="Tracé_91" data-name="Tracé 91" class="cls-12" d="M178.452,212.534a5.156,5.156,0,0,1-8.47.289,18.978,18.978,0,0,1-2.767-5.195c-2.6-8.524-4.207-13.808-4.428-22.715a7.018,7.018,0,0,1,7.226-1.711l4.257,14.432s8.675-21.55,12.177-22.324c4.137-.906,5.858,2.78,7.6,7.319C195.3,185.9,184.1,203.817,178.452,212.534Z"/>
            <g id="Groupe_73" data-name="Groupe 73">
              <g id="Groupe_72" data-name="Groupe 72">
                <path id="Tracé_92" data-name="Tracé 92" class="cls-22" d="M213.481,153.745c-.981,5-3.184,15.914.316,19.252,0,0-1.367,5.074-10.662,5.074-10.22,0-4.884-5.073-4.884-5.073,5.578-1.332,5.434-5.471,4.462-9.358Z"/>
                <path id="Tracé_93" data-name="Tracé 93" class="cls-11" d="M197.848,141.948a.4.4,0,0,0,.357-.579,3.962,3.962,0,0,0-2.9-2.213.4.4,0,0,0-.092.794h0a3.163,3.163,0,0,1,2.274,1.777A.4.4,0,0,0,197.848,141.948Z"/>
                <path id="Tracé_94" data-name="Tracé 94" class="cls-23" d="M194.8,146.319a18.154,18.154,0,0,1-2.939,4.009,2.926,2.926,0,0,0,2.35.75Z"/>
                <path id="Tracé_95" data-name="Tracé 95" class="cls-11" d="M195.6,144.856c.144.665-.092,1.28-.526,1.374s-.9-.368-1.047-1.033.091-1.279.525-1.373S195.459,144.192,195.6,144.856Z"/>
                <path id="Tracé_96" data-name="Tracé 96" class="cls-11" d="M194.756,143.819l-1.7-.114S194.149,144.774,194.756,143.819Z"/>
                <path id="Tracé_97" data-name="Tracé 97" class="cls-22" d="M159.979,169.052v.02c0-.01-.01-.01-.01-.02Z"/>
                <path id="Tracé_98" data-name="Tracé 98" class="cls-24" d="M188.347,185.566c1.771-1.621,2.968-1.137,3.784.151.805,3.744-3.966,11.584-5.888,14.552Z"/>
                <path id="Tracé_99" data-name="Tracé 99" class="cls-12" d="M229.3,190.5c-.23,4.12-.62,9.309-1.25,15.84-.66,6.889-1.6,15.259-2.89,25.429-13.59,0-27.82-.21-34.43-.21.553-13.508.758-27.194-5.3-54.08a2.545,2.545,0,0,1,2.033-3.065A98.022,98.022,0,0,1,199.384,173a108.94,108.94,0,0,1,15.55,0c6.67.609,14.25,2.16,14.25,2.16S230.024,177.636,229.3,190.5Z"/>
                <path id="Tracé_100" data-name="Tracé 100" class="cls-24" d="M229.3,190.5c-.23,4.12-.62,9.309-1.25,15.84-3.66-4.241-7.12-18.84-6.02-23.83a32.752,32.752,0,0,1,7.11,7.2A7.327,7.327,0,0,1,229.3,190.5Z"/>
                <g id="Groupe_68" data-name="Groupe 68">
                  <g id="Groupe_66" data-name="Groupe 66">
                    <path id="Tracé_101" data-name="Tracé 101" class="cls-22" d="M264.593,208.8l6.965-3.916,1.3,7.13s-5.9,2.261-9.027.677Z"/>
                    <path id="Tracé_102" data-name="Tracé 102" class="cls-22" d="M276.222,205.694l.484,2.327a1.847,1.847,0,0,1-.77,1.9l-3.077,2.09-1.3-7.13,2.408-.6A1.845,1.845,0,0,1,276.222,205.694Z"/>
                  </g>
                  <g id="Groupe_67" data-name="Groupe 67">
                    <path id="Tracé_103" data-name="Tracé 103" class="cls-22" d="M222.6,183.421c2.232,4.541,10.418,21.688,14.016,25.652l.7.738.352.368c.121.124.217.234.409.4a12.405,12.405,0,0,0,2.122,1.605,16.366,16.366,0,0,0,4.361,1.76,30.585,30.585,0,0,0,8.18.776,59.957,59.957,0,0,0,15.1-2.564l-.894-4.175c-2.3.2-4.727.338-7.07.377a56.221,56.221,0,0,1-6.95-.22,27.029,27.029,0,0,1-6.3-1.225,9.438,9.438,0,0,1-2.325-1.175,4.544,4.544,0,0,1-.744-.663,3.071,3.071,0,0,1-.225-.257l-.261-.313-.522-.621c-2.764-3.46-10.053-20.137-12.241-24.307Z"/>
                  </g>
                </g>
                <path id="Tracé_104" data-name="Tracé 104" class="cls-12" d="M264.483,215.9a24.615,24.615,0,0,1-18.749,1.822,25.081,25.081,0,0,1-14.09-11.413c-3.613-5.314-13.223-20.333-12.015-24.217,1.429-4.64,4.468-7.518,9.55-6.271,3.573.866,10.386,18.2,13.677,25.134,1.3,1.933,3.774,4.992,6.541,5.938,4.892,1.691,8.495.956,13.617.231.936.564.866,1.43,1.339,2.406A7.264,7.264,0,0,1,264.483,215.9Z"/>
                <path id="Tracé_105" data-name="Tracé 105" class="cls-22" d="M218.523,145.725c-1.534,8.225-2.008,11.739-6.72,15.475-7.088,5.619-16.854,1.936-17.808-6.581-.858-7.667,1.795-19.829,10.315-22.123A11.411,11.411,0,0,1,218.523,145.725Z"/>
                <g id="Groupe_69" data-name="Groupe 69">
                  <path id="Tracé_106" data-name="Tracé 106" class="cls-11" d="M247.7,191.24c-1.57,1.79-2.065,2.826-4.245,3.8s-6.939.125-8.449-1.725c.49,1.44,3.354,4.029,4.854,4.229a8.493,8.493,0,0,1-10.46-1.84,5.414,5.414,0,0,0,3.56,3.91c-19.163.495-11.094-8.523-23.086-21.346-13.285-14.205-10.4-25.944-10.4-25.944a13.544,13.544,0,0,0-2.61-8.14c-1.92-2.46-1.36-5.78-.75-7.64.89-2.73,3.6-3.69,6.2-3.85.458-2.694,5.962-2.2,6.666-1.748.6.386.758.353,1.362-.033,1.353-.867,4.752-1.773,8.392,1.171,2.222,1.8,4.6,5.02,4.675,11.88.083,7.134-3.321,15.6,8.471,26.435C238.825,176.782,235.5,190.492,247.7,191.24Z"/>
                </g>
                <path id="Tracé_107" data-name="Tracé 107" class="cls-22" d="M197.89,146.346a6.265,6.265,0,0,0-1.078,4.544c.335,2.111,2.393,2.251,3.883.9,1.341-1.218,2.782-3.784,1.684-5.534A2.645,2.645,0,0,0,197.89,146.346Z"/>
                <g id="Groupe_70" data-name="Groupe 70">
                  <path id="Tracé_108" data-name="Tracé 108" class="cls-11" d="M216.448,231.763s-4.083,57.407-8.692,95.272a93.288,93.288,0,0,1-10.215,32.473l-22.587,42.558-11.561-4.547s7.964-40.454,23.583-62.511c0,0-11.658-65.93,3.6-103.447Z"/>
                </g>
                <path id="Tracé_109" data-name="Tracé 109" class="cls-24" d="M200.728,245.665s3.438,26.041,5.327,41.472C198.963,277.836,193.532,264.861,200.728,245.665Z"/>
                <g id="Groupe_71" data-name="Groupe 71">
                  <path id="Tracé_110" data-name="Tracé 110" class="cls-12" d="M245.641,424.59a1.153,1.153,0,0,0,.236-1.119.7.7,0,0,0-.47-.534c-1.064-.356-3.556,1.59-3.836,1.814a.2.2,0,0,0-.07.214.206.206,0,0,0,.172.148,10.83,10.83,0,0,0,2.344.086A2.546,2.546,0,0,0,245.641,424.59Zm-.368-1.264a.292.292,0,0,1,.2.242.767.767,0,0,1-.14.747c-.4.441-1.546.6-3.1.45C243.251,424.015,244.711,423.135,245.273,423.326Z"/>
                  <path id="Tracé_111" data-name="Tracé 111" class="cls-12" d="M241.821,425.077c.79-.546,2.2-2.559,1.9-3.512a.725.725,0,0,0-.755-.5,1.089,1.089,0,0,0-.851.358c-.87.921-.635,3.4-.624,3.509a.2.2,0,0,0,.12.166.213.213,0,0,0,.108.018A.2.2,0,0,0,241.821,425.077Zm1.138-3.6c.268.006.337.116.366.211.179.581-.675,2.074-1.443,2.808a4.625,4.625,0,0,1,.541-2.792.674.674,0,0,1,.442-.223C242.9,421.474,242.927,421.473,242.959,421.473Z"/>
                  <path id="Tracé_112" data-name="Tracé 112" class="cls-22" d="M231.516,425.892l8.759-.844L237.6,405.153l-8.759.844Z"/>
                  <path id="Tracé_113" data-name="Tracé 113" class="cls-11" d="M240.869,423.983l-9.84.948a.691.691,0,0,0-.641.656l-.358,7.769a1.405,1.405,0,0,0,1.556,1.4c3.425-.389,5.059-.746,9.386-1.163,2.662-.257,6.579-.36,10.255-.714,3.6-.346,3.517-3.95,1.954-4.127-7.009-.791-8.293-2.69-10.795-4.378A2.32,2.32,0,0,0,240.869,423.983Z"/>
                  <path id="Tracé_114" data-name="Tracé 114" class="cls-11" d="M225.111,231.749s11.205,68.511,13.364,109.1l.4,72.7-9.066,1.768s-13.136-46.378-14.648-73.184c-4.01-71.128-27.176-71.245-13.238-110.5Z"/>
                  <path id="Tracé_115" data-name="Tracé 115" class="cls-12" d="M241.889,413.837l-15.013,2.056-1.521-5.766,16.046-2.087Z"/>
                </g>
                <path id="Tracé_116" data-name="Tracé 116" class="cls-22" d="M160,169.123h-.03l.01-.051C159.979,169.093,159.989,169.1,160,169.123Z"/>
              </g>
            </g>
          </g>
          <g id="Groupe_80" data-name="Groupe 80">
            <g id="Groupe_79" data-name="Groupe 79">
              <g id="Groupe_78" data-name="Groupe 78">
                <g id="Groupe_75" data-name="Groupe 75">
                  <path id="Tracé_117" data-name="Tracé 117" class="cls-12" d="M160.961,158.253h.574a.982.982,0,0,0-.991,1.046l.913,17.414a1.114,1.114,0,0,0,1.1,1.046h-.574a1.114,1.114,0,0,1-1.1-1.046L159.97,159.3A.983.983,0,0,1,160.961,158.253Z"/>
                  <path id="Tracé_118" data-name="Tracé 118" class="cls-25" d="M160.961,158.253h.574a.982.982,0,0,0-.991,1.046l.913,17.414a1.114,1.114,0,0,0,1.1,1.046h-.574a1.114,1.114,0,0,1-1.1-1.046L159.97,159.3A.983.983,0,0,1,160.961,158.253Z"/>
                </g>
                <path id="Tracé_119" data-name="Tracé 119" class="cls-12" d="M162.154,177.759h7.024a.982.982,0,0,0,.991-1.046l-.912-17.414a1.115,1.115,0,0,0-1.1-1.046h-7.024a.983.983,0,0,0-.991,1.046l.913,17.414A1.114,1.114,0,0,0,162.154,177.759Z"/>
                <path id="Tracé_120" data-name="Tracé 120" class="cls-26" d="M162.154,177.759h7.024a.982.982,0,0,0,.991-1.046l-.912-17.414a1.115,1.115,0,0,0-1.1-1.046h-7.024a.983.983,0,0,0-.991,1.046l.913,17.414A1.114,1.114,0,0,0,162.154,177.759Z"/>
                <g id="Groupe_76" data-name="Groupe 76">
                  <path id="Tracé_121" data-name="Tracé 121" class="cls-11" d="M169.73,176.35a.647.647,0,0,1-.17.48.665.665,0,0,1-.47.19h-6.81a.753.753,0,0,1-.74-.71l-.89-16.89a.61.61,0,0,1,.17-.47.634.634,0,0,1,.47-.2h6.81a.753.753,0,0,1,.74.71l.06,1.21Z"/>
                </g>
                <g id="Groupe_77" data-name="Groupe 77" class="cls-27">
                  <path id="Tracé_122" data-name="Tracé 122" class="cls-7" d="M168.9,160.67l-2.26,16.35h-2.71l2.56-18.27h1.61a.753.753,0,0,1,.74.71Z"/>
                  <path id="Tracé_123" data-name="Tracé 123" class="cls-7" d="M162.95,177.02h-.611l2.561-18.27h.611Z"/>
                </g>
              </g>
            </g>
          </g>
        </g>
        <path id="Tracé_124" data-name="Tracé 124" class="cls-12" d="M188.521,233.7a73.95,73.95,0,0,0-8.032,32.347c17.023,13.189,32.831-2.257,52.289.352-.679-8.788-3.664-25.049-7.21-33.119C212.71,233.825,200.668,232.542,188.521,233.7Z"/>
        <g id="Groupe_82" data-name="Groupe 82">
          <path id="Tracé_125" data-name="Tracé 125" class="cls-7" d="M190.292,230.133s-1.374,3.522-.98,3.522h35.676c.307,0,.561-.15.58-.343l.307-3.045c.022-.211-.244-.389-.58-.389H190.846A.616.616,0,0,0,190.292,230.133Z"/>
        </g>
        <path id="Tracé_126" data-name="Tracé 126" class="cls-12" d="M195.318,233.955H194.4c-.184,0-.324-.1-.311-.21l.432-3.957c.013-.116.174-.21.357-.21h.923c.184,0,.324.094.311.21l-.433,3.957C195.663,233.86,195.5,233.955,195.318,233.955Z"/>
        <path id="Tracé_127" data-name="Tracé 127" class="cls-12" d="M217.682,233.955h-.923c-.183,0-.323-.1-.311-.21l.433-3.957c.013-.116.173-.21.357-.21h.923c.184,0,.324.094.311.21l-.433,3.957C218.027,233.86,217.866,233.955,217.682,233.955Z"/>
      </g>
    </g>
  </g>
</svg>
